<svg width="28" height="17" viewBox="0 0 28 17" fill="none" xmlns="http://www.w3.org/2000/svg">
<path fill-rule="evenodd" clip-rule="evenodd" d="M13.3089 16.1957H14.935C14.935 16.1957 15.426 16.1387 15.6755 15.866C15.905 15.6137 15.9009 15.1457 15.9009 15.1457C15.9009 15.1457 15.8687 12.9398 16.879 12.6142C17.8771 12.2927 19.1611 14.7468 20.5174 15.6869C21.5438 16.4032 22.3246 16.2445 22.3246 16.2445L25.959 16.1957C25.959 16.1957 27.8587 16.0776 26.9572 14.5637C26.8847 14.4416 26.434 13.4485 24.2565 11.4055C21.9784 9.2688 22.2843 9.61474 25.0293 5.91526C26.6996 3.66464 27.3677 2.28903 27.1584 1.6989C26.9572 1.14133 25.7296 1.28785 25.7296 1.28785L21.6404 1.31227C21.6404 1.31227 21.3345 1.27157 21.1131 1.40587C20.8917 1.54018 20.7509 1.84949 20.7509 1.84949C20.7509 1.84949 20.1029 3.59545 19.2416 5.07687C17.4183 8.20251 16.6898 8.36937 16.392 8.17402C15.6997 7.72226 15.8728 6.3548 15.8728 5.38618C15.8728 2.35415 16.3276 1.0925 14.9873 0.762839C14.5446 0.657023 14.2145 0.583766 13.0795 0.571557C11.6185 0.559347 10.3869 0.575627 9.68657 0.925633C9.21969 1.15354 8.86148 1.66634 9.07882 1.6989C9.34849 1.73146 9.96429 1.86577 10.2863 2.30938C10.7049 2.8873 10.6928 4.1815 10.6928 4.1815C10.6928 4.1815 10.9343 7.75075 10.1293 8.19437C9.5779 8.49553 8.82123 7.87692 7.19922 5.04024C6.36608 3.58731 5.7382 1.97972 5.7382 1.97972C5.7382 1.97972 5.61746 1.67855 5.40012 1.51983C5.1385 1.32448 4.77224 1.26343 4.77224 1.26343L0.884242 1.28785C0.884242 1.28785 0.304665 1.30413 0.0873233 1.56053C-0.101844 1.78844 0.0752488 2.26054 0.0752488 2.26054C0.0752488 2.26054 3.11401 9.46009 6.55927 13.0863C9.7228 16.4114 13.3089 16.1957 13.3089 16.1957Z" fill="#FEFEFE"/>
</svg>
